<!-- <svg width="131" height="40" viewBox="0 0 131 40" fill="none" xmlns="http://www.w3.org/2000/svg">
<circle cx="17.5" cy="19.5" r="13.5" fill="url(#paint0_linear_425_166)"/>
<path d="M10.4286 15.1351C14.6075 14.0893 18.7766 13.046 22.9559 12C23.1752 12.848 23.3923 13.6879 23.6118 14.5371C20.3486 15.3537 17.0907 16.1692 13.8329 16.9846C13.8336 16.9898 13.8342 16.9949 13.835 17.0001H23.9228C23.9245 17.037 23.9274 17.0668 23.9274 17.0969C23.9276 19.2878 23.9287 21.4789 23.927 23.6698C23.926 24.8933 22.9172 25.9325 21.6794 25.9896C21.5589 25.9952 21.4381 25.9986 21.3174 25.9986C18.6832 25.9992 16.049 25.9995 13.415 25.9986C12.7566 25.9984 12.1814 25.7789 11.7114 25.3255C11.2836 24.9126 11.0414 24.4063 11.0043 23.8126C10.9969 23.6941 10.9946 23.5752 10.9946 23.4565C10.994 21.5189 10.9931 19.5814 10.9959 17.644C10.9963 17.4423 10.9738 17.2479 10.9213 17.0522C10.7567 16.4395 10.6021 15.8244 10.4438 15.21C10.4385 15.1894 10.4353 15.1682 10.4286 15.1351ZM11.6049 19.6276V19.7292C11.6049 21.0375 11.6047 22.3459 11.6057 23.6541C11.6057 23.7256 11.612 23.7977 11.6228 23.8685C11.7616 24.7735 12.5004 25.3983 13.4305 25.3983C16.0963 25.3983 18.7622 25.3983 21.4281 25.398C21.5011 25.398 21.5742 25.3946 21.6469 25.3893C22.5983 25.3211 23.3167 24.5605 23.3167 23.621C23.3167 22.3282 23.3167 21.0357 23.3167 19.7429V19.6276H11.6049ZM13.4705 17.6036C13.4906 17.6357 13.5024 17.6568 13.5162 17.6763C13.8161 18.1019 14.1171 18.5267 14.4147 18.9539C14.4495 19.0038 14.4836 19.0237 14.5453 19.0232C14.9044 19.0203 15.2635 19.0218 15.6225 19.0215C15.6496 19.0215 15.6768 19.0177 15.7073 19.0153C15.7006 18.998 15.6991 18.9882 15.6939 18.9809C15.3824 18.5369 15.0714 18.0923 14.7566 17.6504C14.7379 17.6241 14.6894 17.6062 14.6543 17.6053C14.4605 17.601 14.2666 17.6032 14.0728 17.6032C13.877 17.6032 13.6809 17.6032 13.4703 17.6032L13.4705 17.6036ZM18.6032 19.0218C18.5813 18.9858 18.5696 18.9638 18.5555 18.9437C18.2552 18.5175 17.9536 18.0923 17.6552 17.6648C17.6218 17.6171 17.5873 17.6021 17.5308 17.6023C17.1681 17.6046 16.8053 17.6034 16.4426 17.6036C16.419 17.6036 16.3953 17.6059 16.3602 17.6077C16.3772 17.634 16.3865 17.6494 16.3966 17.6639C16.6725 18.0572 16.9565 18.4452 17.2204 18.8462C17.3149 18.9897 17.4181 19.032 17.5838 19.0256C17.9169 19.0126 18.2508 19.0217 18.603 19.0217L18.6032 19.0218ZM19.2443 17.6036C19.2651 17.6367 19.2767 17.6575 19.2903 17.6771C19.5906 18.103 19.8922 18.5281 20.19 18.9555C20.2253 19.0064 20.2614 19.0235 20.3217 19.023C20.6779 19.0205 21.0341 19.0218 21.3903 19.0215C21.418 19.0215 21.4455 19.0181 21.4814 19.0158C21.4709 18.9946 21.4659 18.9803 21.4577 18.9685C21.1494 18.529 20.8415 18.0893 20.5302 17.6519C20.5114 17.6256 20.4641 17.6062 20.4297 17.6055C20.2232 17.6012 20.0163 17.6034 19.8095 17.6034C19.6263 17.6034 19.443 17.6034 19.2443 17.6034V17.6036ZM21.0964 14.5442C21.0757 14.5228 21.0679 14.513 21.0586 14.505C20.6476 14.1524 20.2369 13.7993 19.824 13.4488C19.8032 13.4312 19.7605 13.4237 19.7328 13.4304C19.3634 13.52 18.9948 13.6132 18.6259 13.7056C18.6124 13.709 18.6 13.7159 18.5652 13.7298C18.5948 13.749 18.612 13.7576 18.6261 13.7696C18.9782 14.07 19.3372 14.3632 19.6782 14.6753C19.82 14.8051 19.9441 14.8502 20.1352 14.7906C20.4456 14.6937 20.7659 14.6272 21.0964 14.5442ZM15.4986 15.9453C15.4836 15.9258 15.4778 15.9147 15.4691 15.907C15.0647 15.562 14.6591 15.2185 14.2572 14.8708C14.2072 14.8276 14.1683 14.8209 14.1064 14.837C13.8061 14.9153 13.5043 14.9878 13.2033 15.0628C13.1338 15.0801 13.0649 15.099 12.9773 15.1221C13.0761 15.2072 13.1613 15.2803 13.2462 15.3533C13.5732 15.6341 13.8995 15.9157 14.2286 16.194C14.2572 16.2183 14.309 16.2395 14.3424 16.2316C14.7242 16.1407 15.1046 16.044 15.4986 15.9453ZM15.7861 14.4169C15.7966 14.4366 15.7982 14.4435 15.8026 14.4471C16.2155 14.8019 16.6278 15.1573 17.0436 15.5089C17.0703 15.5314 17.1268 15.5365 17.164 15.5276C17.5122 15.4442 17.8591 15.3562 18.2063 15.269C18.235 15.2619 18.2627 15.2517 18.3029 15.2393C17.8919 14.8874 17.4905 14.5485 17.0961 14.2022C17.013 14.1293 16.9401 14.1147 16.841 14.1511C16.7733 14.1761 16.7002 14.187 16.6295 14.2048C16.3508 14.2749 16.0721 14.3449 15.7861 14.4171V14.4169ZM11.6095 19.0162H12.815C12.8142 19.0048 12.8159 18.9974 12.8131 18.9933C12.4962 18.5418 12.1793 18.0903 11.8607 17.6397C11.8485 17.6224 11.8223 17.6068 11.8015 17.6053C11.7393 17.6008 11.6765 17.6036 11.6097 17.6036V19.0162H11.6095ZM11.5232 16.9402C11.9203 16.8407 12.308 16.7436 12.7209 16.6401C12.6854 16.6142 12.6667 16.6025 12.6501 16.5883C12.2694 16.2639 11.8889 15.9393 11.5087 15.6146C11.3817 15.5062 11.3361 15.5015 11.1727 15.5868C11.2888 16.0348 11.405 16.484 11.5232 16.9404V16.9402ZM22.1289 17.607C22.4405 18.0493 22.7465 18.4745 23.0405 18.9076C23.1138 19.0156 23.1924 19.0427 23.3106 19.011V17.6068H22.1289V17.607ZM22.5126 12.7325C22.1303 12.8287 21.7588 12.922 21.3871 13.0154L21.3783 13.042C21.3947 13.052 21.4127 13.0601 21.427 13.0723C21.8052 13.3944 22.1868 13.7125 22.5581 14.042C22.6562 14.1289 22.74 14.1609 22.8633 14.0891C22.7474 13.6408 22.6306 13.1891 22.5124 12.7323L22.5126 12.7325Z" fill="white"/>
<path d="M16.3951 20.7748C16.4152 20.7842 16.444 20.7953 16.4707 20.8103C17.2734 21.2656 18.076 21.7212 18.8785 22.1767C19.0242 22.2593 19.1698 22.3421 19.3153 22.4252C19.4252 22.4881 19.4256 22.572 19.3143 22.6353C18.4984 23.0994 17.6821 23.5628 16.8661 24.0263C16.7341 24.1013 16.6026 24.1768 16.4699 24.2506C16.3562 24.3139 16.2827 24.2744 16.2827 24.148C16.2821 23.0681 16.2827 21.9881 16.2819 20.9081C16.2819 20.8371 16.3027 20.7859 16.3951 20.7748Z" fill="white"/>
<path fill-rule="evenodd" clip-rule="evenodd" d="M96.6953 21V14.601H101.335V21H96.6953ZM91.2058 21L94.0137 14.601H88.9387L86.7685 21H91.2058ZM86.0902 23H90.3283L87.2567 30H83.6027L80.6761 23H85.0903L85.5853 24.4886L86.0902 23ZM84.4253 21L82.2977 14.601H77.1647L79.84 21H84.4253ZM76.1784 21C76.0322 19.9674 75.7039 19.0234 75.1934 18.168C74.478 16.9693 73.492 16.022 72.2354 15.326C70.998 14.63 69.577 14.282 67.9724 14.282C66.3677 14.282 64.937 14.63 63.6804 15.326C62.443 16.022 61.457 16.9693 60.7224 18.168C60.2119 19.0234 59.8836 19.9674 59.7374 21H64.5159C64.5873 20.728 64.6858 20.4703 64.8114 20.227C65.1207 19.6083 65.546 19.125 66.0874 18.777C66.648 18.429 67.2764 18.255 67.9724 18.255C68.6684 18.255 69.287 18.429 69.8284 18.777C70.3697 19.125 70.795 19.6083 71.1044 20.227C71.23 20.4703 71.3285 20.728 71.3999 21H76.1784ZM76.24 23H71.5077C71.4494 23.4887 71.315 23.937 71.1044 24.345C70.795 24.9443 70.3697 25.418 69.8284 25.766C69.287 26.114 68.6684 26.288 67.9724 26.288C67.2764 26.288 66.648 26.114 66.0874 25.766C65.546 25.418 65.1207 24.9443 64.8114 24.345C64.6008 23.937 64.4664 23.4887 64.4081 23H59.6757C59.7702 24.2584 60.1191 25.3931 60.7224 26.404C61.457 27.6027 62.443 28.55 63.6804 29.246C64.937 29.942 66.3677 30.29 67.9724 30.29C69.577 30.29 70.998 29.942 72.2354 29.246C73.492 28.55 74.478 27.6027 75.1934 26.404C75.7967 25.3931 76.1455 24.2584 76.24 23ZM96.6953 23H101.335V30H96.6953V23ZM109.185 23L104.158 30H109.639L112.202 25.4969L115.178 30H120.688L115.691 23H109.185ZM115.94 21L120.398 14.601H114.917L112.685 18.8095L109.871 14.601H104.303L108.985 21H115.94ZM99.0153 11.556C98.1453 11.556 97.459 11.353 96.9563 10.947C96.473 10.5217 96.2313 9.92233 96.2313 9.149C96.2313 8.453 96.4826 7.88266 96.9853 7.438C97.488 6.99333 98.1646 6.771 99.0153 6.771C99.8853 6.771 100.562 6.98366 101.045 7.409C101.529 7.815 101.77 8.395 101.77 9.149C101.77 9.86433 101.519 10.4443 101.016 10.889C100.533 11.3337 99.866 11.556 99.0153 11.556ZM35.7554 30V9.7H40.1634L45.9801 19.1664L51.8794 9.7H56.1134V30H51.3284V23.678C51.3284 21.938 51.3671 20.372 51.4444 18.98C51.4727 18.5729 51.5059 18.1666 51.5441 17.7611L46.8334 25.07H44.9194L40.3272 17.8433C40.3539 18.1716 40.3767 18.5022 40.3954 18.835C40.4921 20.1883 40.5404 21.8027 40.5404 23.678V30H35.7554Z" fill="url(#paint1_linear_425_166)"/>
<defs>
<linearGradient id="paint0_linear_425_166" x1="4.66832" y1="24.1098" x2="34.1078" y2="13.9886" gradientUnits="userSpaceOnUse">
<stop stop-color="#F89E00"/>
<stop offset="1" stop-color="#DA2F68"/>
</linearGradient>
<linearGradient id="paint1_linear_425_166" x1="35.4961" y1="26.2198" x2="124.453" y2="23.9271" gradientUnits="userSpaceOnUse">
<stop stop-color="#F89E00"/>
<stop offset="1" stop-color="#DA2F68"/>
</linearGradient>
</defs>
</svg> -->

<svg width="225" height="51" viewBox="0 0 225 51" fill="none" xmlns="http://www.w3.org/2000/svg">
<path d="M33.8214 11.5117H26.1775V17.2154H33.8214V11.5117Z" fill="url(#paint0_linear_102_34)"/>
<path d="M35.9229 11.5117V17.2154H43.8189C43.1049 13.6179 40.2629 11.5248 35.9229 11.5117Z" fill="url(#paint1_linear_102_34)"/>
<path d="M16 19.1768V30.0739C16 34.8357 19.038 37.6744 24.134 37.6744H35.866C40.962 37.6744 44 34.8357 44 30.0739V19.1768H16ZM33.416 30.0608L30.504 31.6306C29.888 31.9577 29.286 32.1278 28.726 32.1278C28.306 32.1278 27.928 32.0362 27.578 31.853C26.766 31.4213 26.318 30.5318 26.318 29.3806V26.241C26.318 25.0898 26.766 24.2002 27.578 23.7685C28.39 23.3237 29.426 23.4022 30.504 23.9909L33.416 25.5607C34.494 26.1363 35.082 26.9474 35.082 27.8238C35.082 28.7003 34.48 29.4722 33.416 30.0608Z" fill="url(#paint2_linear_102_34)"/>
<path d="M24.0764 11.5117C19.7364 11.5248 16.8944 13.6179 16.1804 17.2154H24.0764V11.5117Z" fill="url(#paint3_linear_102_34)"/>
<path d="M62.1953 32C61.6484 32 61.375 31.707 61.375 31.1211V16.0742C61.375 15.4883 61.6484 15.1953 62.1953 15.1953H65.5938C66.0469 15.1953 66.3711 15.5078 66.5664 16.1328L69.7422 26.4102C69.8828 26.8555 69.9805 27.2227 70.0352 27.5117C70.0898 27.793 70.1367 28.1289 70.1758 28.5195H70.2461C70.2852 28.1289 70.332 27.793 70.3867 27.5117C70.4414 27.2227 70.5391 26.8555 70.6797 26.4102L73.8555 16.1328C74.0508 15.5078 74.375 15.1953 74.8281 15.1953H78.2266C78.7734 15.1953 79.0469 15.4883 79.0469 16.0742V31.1211C79.0469 31.707 78.7734 32 78.2266 32H76.4453C75.8984 32 75.625 31.707 75.625 31.1211V21.4414C75.625 20.9727 75.6445 20.5039 75.6836 20.0352H75.6016L72.2148 31.0508C72.0195 31.6836 71.6836 32 71.207 32H69.2148C68.7383 32 68.4023 31.6836 68.207 31.0508L64.8203 20.0352H64.7383C64.7773 20.5039 64.7969 20.9727 64.7969 21.4414V31.1211C64.7969 31.707 64.5234 32 63.9766 32H62.1953ZM81.8594 25.8477C81.8594 23.8555 82.3711 22.293 83.3945 21.1602C84.4258 20.0273 85.957 19.4609 87.9883 19.4609C90.0195 19.4609 91.5469 20.0273 92.5703 21.1602C93.6016 22.293 94.1172 23.8555 94.1172 25.8477C94.1172 27.8398 93.6016 29.4023 92.5703 30.5352C91.5469 31.668 90.0195 32.2344 87.9883 32.2344C85.957 32.2344 84.4258 31.668 83.3945 30.5352C82.3711 29.4023 81.8594 27.8398 81.8594 25.8477ZM85.3281 25.8477C85.3281 27.332 85.5547 28.3867 86.0078 29.0117C86.4688 29.6289 87.1289 29.9375 87.9883 29.9375C88.8477 29.9375 89.5039 29.6289 89.957 29.0117C90.418 28.3867 90.6484 27.332 90.6484 25.8477C90.6484 24.3633 90.418 23.3125 89.957 22.6953C89.5039 22.0703 88.8477 21.7578 87.9883 21.7578C87.1289 21.7578 86.4688 22.0703 86.0078 22.6953C85.5547 23.3125 85.3281 24.3633 85.3281 25.8477ZM95.8398 20.6094C95.6445 20 95.7734 19.6953 96.2266 19.6953H98.3242C98.6914 19.6953 98.9258 19.8945 99.0273 20.293L100.844 27.1602C100.945 27.543 101.027 27.9219 101.09 28.2969C101.16 28.6719 101.203 28.9766 101.219 29.2109H101.289C101.305 28.9766 101.344 28.6719 101.406 28.2969C101.477 27.9219 101.562 27.543 101.664 27.1602L103.48 20.293C103.582 19.8945 103.816 19.6953 104.184 19.6953H106.281C106.734 19.6953 106.863 20 106.668 20.6094L103.27 31.2148C103.105 31.7383 102.82 32 102.414 32H100.094C99.6875 32 99.4023 31.7383 99.2383 31.2148L95.8398 20.6094ZM109.164 32C108.695 32 108.461 31.7656 108.461 31.2969V20.3984C108.461 19.9297 108.695 19.6953 109.164 19.6953H111.039C111.508 19.6953 111.742 19.9297 111.742 20.3984V31.2969C111.742 31.7656 111.508 32 111.039 32H109.164ZM109.164 17.8906C108.695 17.8906 108.461 17.6562 108.461 17.1875V15.6875C108.461 15.2188 108.695 14.9844 109.164 14.9844H111.039C111.508 14.9844 111.742 15.2188 111.742 15.6875V17.1875C111.742 17.6562 111.508 17.8906 111.039 17.8906H109.164ZM114.273 25.8477C114.273 23.8711 114.766 22.3125 115.75 21.1719C116.742 20.0312 118.141 19.4609 119.945 19.4609C122.039 19.4609 123.594 20 124.609 21.0781C125.625 22.1562 126.133 23.8906 126.133 26.2812C126.133 26.75 125.914 26.9844 125.477 26.9844H117.742C117.867 28.2812 118.188 29.0977 118.703 29.4336C119.219 29.7695 119.816 29.9375 120.496 29.9375C121.145 29.9375 121.641 29.8516 121.984 29.6797C122.328 29.5078 122.617 29.2734 122.852 28.9766C123.117 28.6328 123.445 28.5781 123.836 28.8125L125.008 29.5273C125.469 29.8086 125.535 30.1445 125.207 30.5352C124.73 31.1055 124.172 31.5312 123.531 31.8125C122.891 32.0938 121.879 32.2344 120.496 32.2344C118.254 32.2344 116.656 31.6641 115.703 30.5234C114.75 29.3828 114.273 27.8242 114.273 25.8477ZM117.754 24.6406H122.852C122.852 23.7969 122.641 23.1094 122.219 22.5781C121.797 22.0391 121.125 21.7695 120.203 21.7695C119.469 21.7695 118.887 22.0273 118.457 22.543C118.027 23.0508 117.793 23.75 117.754 24.6406ZM137.992 32C137.445 32 137.172 31.707 137.172 31.1211V16.0742C137.172 15.4883 137.445 15.1953 137.992 15.1953H141.391C141.844 15.1953 142.168 15.5078 142.363 16.1328L145.539 26.4102C145.68 26.8555 145.777 27.2227 145.832 27.5117C145.887 27.793 145.934 28.1289 145.973 28.5195H146.043C146.082 28.1289 146.129 27.793 146.184 27.5117C146.238 27.2227 146.336 26.8555 146.477 26.4102L149.652 16.1328C149.848 15.5078 150.172 15.1953 150.625 15.1953H154.023C154.57 15.1953 154.844 15.4883 154.844 16.0742V31.1211C154.844 31.707 154.57 32 154.023 32H152.242C151.695 32 151.422 31.707 151.422 31.1211V21.4414C151.422 20.9727 151.441 20.5039 151.48 20.0352H151.398L148.012 31.0508C147.816 31.6836 147.48 32 147.004 32H145.012C144.535 32 144.199 31.6836 144.004 31.0508L140.617 20.0352H140.535C140.574 20.5039 140.594 20.9727 140.594 21.4414V31.1211C140.594 31.707 140.32 32 139.773 32H137.992ZM157.656 25.8477C157.656 23.8711 158.148 22.3125 159.133 21.1719C160.125 20.0312 161.523 19.4609 163.328 19.4609C165.422 19.4609 166.977 20 167.992 21.0781C169.008 22.1562 169.516 23.8906 169.516 26.2812C169.516 26.75 169.297 26.9844 168.859 26.9844H161.125C161.25 28.2812 161.57 29.0977 162.086 29.4336C162.602 29.7695 163.199 29.9375 163.879 29.9375C164.527 29.9375 165.023 29.8516 165.367 29.6797C165.711 29.5078 166 29.2734 166.234 28.9766C166.5 28.6328 166.828 28.5781 167.219 28.8125L168.391 29.5273C168.852 29.8086 168.918 30.1445 168.59 30.5352C168.113 31.1055 167.555 31.5312 166.914 31.8125C166.273 32.0938 165.262 32.2344 163.879 32.2344C161.637 32.2344 160.039 31.6641 159.086 30.5234C158.133 29.3828 157.656 27.8242 157.656 25.8477ZM161.137 24.6406H166.234C166.234 23.7969 166.023 23.1094 165.602 22.5781C165.18 22.0391 164.508 21.7695 163.586 21.7695C162.852 21.7695 162.27 22.0273 161.84 22.543C161.41 23.0508 161.176 23.75 161.137 24.6406ZM172.773 32C172.305 32 172.07 31.7656 172.07 31.2969V20.3984C172.07 19.9297 172.305 19.6953 172.773 19.6953H174.625C175.094 19.6953 175.328 19.9297 175.328 20.3984V21.0781H175.375C175.734 20.4609 176.191 20.0391 176.746 19.8125C177.301 19.5781 177.969 19.4609 178.75 19.4609C179.969 19.4609 180.977 19.8438 181.773 20.6094C182.57 21.375 182.969 22.7734 182.969 24.8047V31.2969C182.969 31.7656 182.734 32 182.266 32H180.391C179.922 32 179.688 31.7656 179.688 31.2969V25.6484C179.688 23.9453 179.57 22.8711 179.336 22.4258C179.102 21.9805 178.598 21.7578 177.824 21.7578C177.004 21.7578 176.387 22.0781 175.973 22.7188C175.559 23.3516 175.352 24.6719 175.352 26.6797V31.2969C175.352 31.7656 175.117 32 174.648 32H172.773ZM185.723 22.0391C185.262 22.0391 185.031 21.8438 185.031 21.4531V20.2812C185.031 19.8906 185.262 19.6953 185.723 19.6953H186.52V19.2852C186.52 18.9336 186.602 18.6133 186.766 18.3242L187.668 16.7422C187.84 16.4453 188.043 16.2969 188.277 16.2969H189.098C189.566 16.2969 189.801 16.5312 189.801 17V19.6953H191.699C192.16 19.6953 192.391 19.8906 192.391 20.2812V21.4531C192.391 21.8438 192.16 22.0391 191.699 22.0391H189.801V27.8516C189.801 28.6484 189.855 29.2227 189.965 29.5742C190.082 29.918 190.379 30.0898 190.855 30.0898C191.098 30.0898 191.371 30.0508 191.676 29.9727C191.98 29.8867 192.219 29.8047 192.391 29.7266C192.664 29.6016 192.844 29.6914 192.93 29.9961L193.281 31.332C193.352 31.5977 193.25 31.793 192.977 31.918C192.719 32.0352 192.363 32.1406 191.91 32.2344C191.465 32.3359 191.016 32.3867 190.562 32.3867C189.445 32.3867 188.492 32.1562 187.703 31.6953C186.914 31.2344 186.52 30.2852 186.52 28.8477V22.0391H185.723ZM194.828 25.8477C194.828 23.8555 195.34 22.293 196.363 21.1602C197.395 20.0273 198.926 19.4609 200.957 19.4609C202.988 19.4609 204.516 20.0273 205.539 21.1602C206.57 22.293 207.086 23.8555 207.086 25.8477C207.086 27.8398 206.57 29.4023 205.539 30.5352C204.516 31.668 202.988 32.2344 200.957 32.2344C198.926 32.2344 197.395 31.668 196.363 30.5352C195.34 29.4023 194.828 27.8398 194.828 25.8477ZM198.297 25.8477C198.297 27.332 198.523 28.3867 198.977 29.0117C199.438 29.6289 200.098 29.9375 200.957 29.9375C201.816 29.9375 202.473 29.6289 202.926 29.0117C203.387 28.3867 203.617 27.332 203.617 25.8477C203.617 24.3633 203.387 23.3125 202.926 22.6953C202.473 22.0703 201.816 21.7578 200.957 21.7578C200.098 21.7578 199.438 22.0703 198.977 22.6953C198.523 23.3125 198.297 24.3633 198.297 25.8477ZM210.32 32C209.852 32 209.617 31.7656 209.617 31.2969V20.3984C209.617 19.9297 209.852 19.6953 210.32 19.6953H212.172C212.641 19.6953 212.875 19.9297 212.875 20.3984V21.3594H212.922C213.125 20.8594 213.465 20.418 213.941 20.0352C214.418 19.6523 214.98 19.4609 215.629 19.4609C216.074 19.4609 216.441 19.5156 216.73 19.625C217.004 19.7266 217.109 19.9141 217.047 20.1875L216.719 21.582C216.648 21.8945 216.438 21.9883 216.086 21.8633C215.883 21.793 215.688 21.7578 215.5 21.7578C214.75 21.7578 214.129 22.207 213.637 23.1055C213.145 24.0039 212.898 25.3125 212.898 27.0312V31.2969C212.898 31.7656 212.664 32 212.195 32H210.32Z" fill="url(#paint4_linear_102_34)"/>
<defs>
<linearGradient id="paint0_linear_102_34" x1="23.813" y1="12.2469" x2="32.9716" y2="20.5" gradientUnits="userSpaceOnUse">
<stop stop-color="#D39C37"/>
<stop offset="1" stop-color="#DA2F68" stop-opacity="0.79"/>
</linearGradient>
<linearGradient id="paint1_linear_102_34" x1="33.4804" y1="12.2469" x2="42.6651" y2="20.7964" gradientUnits="userSpaceOnUse">
<stop stop-color="#D39C37"/>
<stop offset="1" stop-color="#DA2F68" stop-opacity="0.79"/>
</linearGradient>
<linearGradient id="paint2_linear_102_34" x1="7.33872" y1="21.561" x2="37.1977" y2="51.9516" gradientUnits="userSpaceOnUse">
<stop stop-color="#D39C37"/>
<stop offset="1" stop-color="#DA2F68" stop-opacity="0.79"/>
</linearGradient>
<linearGradient id="paint3_linear_102_34" x1="13.7379" y1="12.2469" x2="22.9226" y2="20.7964" gradientUnits="userSpaceOnUse">
<stop stop-color="#D39C37"/>
<stop offset="1" stop-color="#DA2F68" stop-opacity="0.79"/>
</linearGradient>
<linearGradient id="paint4_linear_102_34" x1="163" y1="-41.5" x2="204.222" y2="42.7093" gradientUnits="userSpaceOnUse">
<stop stop-color="#D39C37"/>
<stop offset="0.3125" stop-color="#D7A151" stop-opacity="0.994792"/>
<stop offset="0.541667" stop-color="#D75171" stop-opacity="0.88"/>
<stop offset="1" stop-color="#DA2F68" stop-opacity="0.86"/>
</linearGradient>
</defs>
</svg>
